HIERARCHY
ROOT Hips
{
 OFFSET 0.000000 0.000000 0.000000
 CHANNELS 6 Xposition Yposition Zposition Yrotation Xrotation Zrotation
 JOINT Chest
 {
  OFFSET 0.000000 9.588913 -0.003946
  CHANNELS 3 Yrotation Xrotation Zrotation
  JOINT Chest2
  {
   OFFSET 0.000000 9.541882 0.008053
   CHANNELS 3 Yrotation Xrotation Zrotation
   JOINT Chest3
   {
    OFFSET 0.000000 9.501360 0.000000
    CHANNELS 3 Yrotation Xrotation Zrotation
    JOINT Chest4
    {
     OFFSET 0.000000 9.491660 0.000000
     CHANNELS 3 Yrotation Xrotation Zrotation
     JOINT Neck
     {
      OFFSET 0.000000 14.331917 0.000000
      CHANNELS 3 Yrotation Xrotation Zrotation
      JOINT Head
      {
       OFFSET 0.000000 8.884799 0.017034
       CHANNELS 3 Yrotation Xrotation Zrotation
       End Site
       {
        OFFSET 0.000000 16.896195 0.008993
       }
      }
     }
     JOINT RightCollar
     {
      OFFSET -2.923010 9.499495 0.000000
      CHANNELS 3 Yrotation Xrotation Zrotation
      JOINT RightShoulder
      {
       OFFSET -13.795216 0.000000 0.000000
       CHANNELS 3 Yrotation Xrotation Zrotation
       JOINT RightElbow
       {
        OFFSET -30.272209 0.000000 0.000000
        CHANNELS 3 Yrotation Xrotation Zrotation
        JOINT RightWrist
        {
         OFFSET -24.478199 0.000000 0.000000
         CHANNELS 3 Yrotation Xrotation Zrotation
         End Site
         {
          OFFSET -18.090752 0.000000 0.000000
         }
        }
       }
      }
     }
     JOINT LeftCollar
     {
      OFFSET 2.923010 9.499495 0.000000
      CHANNELS 3 Yrotation Xrotation Zrotation
      JOINT LeftShoulder
      {
       OFFSET 13.795216 0.000000 0.000000
       CHANNELS 3 Yrotation Xrotation Zrotation
       JOINT LeftElbow
       {
        OFFSET 30.272209 0.000000 0.000000
        CHANNELS 3 Yrotation Xrotation Zrotation
        JOINT LeftWrist
        {
         OFFSET 24.478199 0.000000 0.000000
         CHANNELS 3 Yrotation Xrotation Zrotation
         End Site
         {
          OFFSET 18.090752 0.000000 0.000000
         }
        }
       }
      }
     }
    }
   }
  }
 }
 JOINT RightHip
 {
  OFFSET -7.826875 0.019532 0.001973
  CHANNELS 3 Yrotation Xrotation Zrotation
  JOINT RightKnee
  {
   OFFSET 0.000000 -40.546152 -0.001885
   CHANNELS 3 Yrotation Xrotation Zrotation
   JOINT RightAnkle
   {
    OFFSET 0.000000 -39.417092 -0.003189
    CHANNELS 3 Yrotation Xrotation Zrotation
    JOINT RightToe
    {
     OFFSET 0.000000 -7.579396 17.243563
     CHANNELS 3 Yrotation Xrotation Zrotation
     End Site
     {
      OFFSET 0.000000 -1.500329 6.694466
     }
    }
   }
  }
 }
 JOINT LeftHip
 {
  OFFSET 7.826875 0.019532 0.001973
  CHANNELS 3 Yrotation Xrotation Zrotation
  JOINT LeftKnee
  {
   OFFSET 0.000000 -40.546152 -0.001885
   CHANNELS 3 Yrotation Xrotation Zrotation
   JOINT LeftAnkle
   {
    OFFSET 0.000000 -39.417092 -0.003189
    CHANNELS 3 Yrotation Xrotation Zrotation
    JOINT LeftToe
    {
     OFFSET 0.000000 -7.579396 17.243563
     CHANNELS 3 Yrotation Xrotation Zrotation
     End Site
     {
      OFFSET 0.000000 -1.500329 6.694466
     }
    }
   }
  }
 }
}
MOTION
Frames: 6
Frame Time: 0.008333
224.582857 87.599221 -162.327094 123.593704 -15.961872 0.781774 2.521414 4.899683 -1.577985 1.622453 2.766697 -1.022855 2.020909 3.462776 -1.266648 1.622453 2.766696 -1.022854 3.038133 14.541054 -1.498924 3.545635 -10.411252 -2.273510 -11.320279 -8.413243 -9.031630 -40.224870 -30.314164 64.611901 89.559044 -70.067555 41.957202 16.178392 -27.784427 10.903021 -18.602669 -9.198296 8.558415 -10.680934 -43.706253 -91.471937 -25.298799 -18.431875 -95.194722 -7.932787 -25.099394 0.138905 -4.977322 -5.433207 -10.247534 8.577403 51.897541 7.871195 -1.954945 -2.588687 9.170188 0.901177 -26.476176 -3.657364 2.632023 9.537661 1.378404 7.107483 19.829820 2.915356 4.892047 -12.045806 -1.462671 -0.143874 -0.446043 -0.279282
225.135659 87.635824 -162.744524 123.780121 -15.841734 0.695696 2.487334 4.828760 -1.510727 1.558967 2.760676 -1.021045 1.941558 3.455072 -1.264891 1.558967 2.760675 -1.021044 3.024778 14.538751 -1.502386 3.532071 -10.413991 -2.273948 -11.332925 -8.397524 -9.063571 -40.229953 -30.354813 64.599645 89.638546 -70.061544 41.878740 16.155654 -27.776860 10.931949 -18.627548 -9.191976 8.525208 -10.663629 -43.707351 -91.478452 -25.279408 -18.414407 -95.195587 -7.866411 -25.063151 0.063108 -4.425764 -6.040499 -10.061196 7.853040 50.256005 7.722999 -2.081785 -2.896363 8.938843 0.894115 -24.507617 -3.786391 2.635517 10.048887 1.490953 7.037590 19.527178 2.780547 4.772976 -12.335065 -1.362486 -0.139293 -0.411999 -0.304708
225.695701 87.663094 -163.163084 123.944045 -15.740499 0.639509 2.466799 4.767471 -1.468651 1.498422 2.760791 -1.019126 1.865869 3.455046 -1.262951 1.498422 2.760790 -1.019126 3.011646 14.525461 -1.499218 3.517127 -10.428353 -2.267386 -11.343821 -8.382352 -9.090270 -40.250476 -30.394310 64.590352 89.716178 -70.055358 41.804967 16.145415 -27.774643 10.953659 -18.649007 -9.191631 8.490164 -10.655520 -43.720219 -91.483358 -25.256509 -18.401900 -95.193772 -7.814932 -25.036915 -0.000111 -3.911752 -6.561439 -9.900830 7.154534 48.441925 7.489863 -2.260303 -3.095548 8.772877 0.840738 -22.396727 -3.861653 2.607484 10.568318 1.561201 6.978158 19.251621 2.665159 4.695048 -12.622246 -1.275526 -0.133575 -0.389063 -0.329116
226.262416 87.680926 -163.578079 124.110403 -15.640009 0.581501 2.438001 4.695186 -1.427664 1.440927 2.766837 -1.016752 1.793984 3.462440 -1.260395 1.440927 2.766837 -1.016751 2.997441 14.503350 -1.489627 3.499459 -10.452097 -2.253732 -11.354607 -8.372106 -9.114663 -40.278617 -30.422718 64.582518 89.810379 -70.047440 41.716222 16.145117 -27.774286 10.969002 -18.669482 -9.193710 8.452496 -10.657118 -43.742062 -91.482970 -25.241512 -18.399175 -95.185066 -7.785024 -25.023312 -0.039811 -3.499637 -7.011112 -9.747459 6.490742 46.482355 7.160909 -2.454176 -3.235832 8.689006 0.752696 -20.162332 -3.911825 2.515048 11.072960 1.610702 6.933028 19.011958 2.568036 4.682265 -12.920779 -1.197646 -0.143615 -0.367297 -0.361747
226.836346 87.690930 -163.994056 124.286274 -15.561064 0.536550 2.389841 4.638506 -1.403196 1.387075 2.776597 -1.013942 1.726647 3.474485 -1.257256 1.387075 2.776596 -1.013941 2.980168 14.474719 -1.475071 3.477276 -10.482832 -2.234056 -11.368430 -8.369387 -9.140097 -40.303262 -30.430314 64.576083 89.937263 -70.040638 41.597671 16.155452 -27.773102 10.974808 -18.690776 -9.196437 8.410217 -10.660398 -43.769061 -91.479654 -25.235622 -18.403943 -95.169565 -7.768546 -25.016563 -0.056773 -3.239570 -7.368247 -9.625659 5.859254 44.393445 6.717915 -2.594880 -3.293608 8.677603 0.653448 -17.877660 -3.949138 2.360291 11.584732 1.629137 6.899547 18.806702 2.483883 4.705831 -13.222219 -1.126744 -0.149051 -0.354731 -0.395795
227.418986 87.695187 -164.418315 124.492584 -15.538702 0.525780 2.297697 4.639149 -1.419323 1.337675 2.786977 -1.011316 1.664874 3.487318 -1.254314 1.337675 2.786976 -1.011316 2.958179 14.443651 -1.456846 3.449127 -10.516297 -2.209342 -11.387733 -8.367721 -9.168069 -40.321387 -30.415985 64.575498 90.101829 -70.035176 41.442494 16.176361 -27.771318 10.970635 -18.714308 -9.195718 8.362967 -10.658684 -43.799544 -91.476511 -25.232678 -18.410527 -95.153848 -7.754427 -25.012283 -0.058936 -3.180977 -7.604288 -9.566398 5.246931 42.199663 6.154201 -2.661942 -3.253624 8.734817 0.554807 -15.598661 -3.973967 2.141075 12.146437 1.596849 6.869074 18.621530 2.409546 4.734451 -13.507620 -1.058187 -0.137604 -0.365008 -0.425983
